<?xml version="1.0" encoding="UTF-8" standalone="no"?>
<!-- Uploaded to: SVG Repo, www.svgrepo.com, Generator: SVG Repo Mixer Tools -->

<svg
   fill="#000000"
   width="800px"
   height="800px"
   viewBox="0 0 256 256"
   id="Flat"
   version="1.1"
   sodipodi:docname="brackets.svg"
   inkscape:version="1.2.2 (b0a8486541, 2022-12-01)"
   xmlns:inkscape="http://www.inkscape.org/namespaces/inkscape"
   xmlns:sodipodi="http://sodipodi.sourceforge.net/DTD/sodipodi-0.dtd"
   xmlns="http://www.w3.org/2000/svg"
   xmlns:svg="http://www.w3.org/2000/svg">
  <defs
     id="defs7" />
  <sodipodi:namedview
     id="namedview5"
     pagecolor="#ffffff"
     bordercolor="#000000"
     borderopacity="0.25"
     inkscape:showpageshadow="2"
     inkscape:pageopacity="0.0"
     inkscape:pagecheckerboard="0"
     inkscape:deskcolor="#d1d1d1"
     showgrid="false"
     inkscape:zoom="1.00375"
     inkscape:cx="297.88294"
     inkscape:cy="400.49813"
     inkscape:window-width="1920"
     inkscape:window-height="983"
     inkscape:window-x="0"
     inkscape:window-y="34"
     inkscape:window-maximized="1"
     inkscape:current-layer="Flat" />
  <path
     d="M52,52V204H80a12,12,0,0,1,0,24H40a12.00028,12.00028,0,0,1-12-12V40A12.00028,12.00028,0,0,1,40,28H80a12,12,0,0,1,0,24ZM216,28H176a12,12,0,0,0,0,24h28V204H176a12,12,0,0,0,0,24h40a12.00028,12.00028,0,0,0,12-12V40A12.00028,12.00028,0,0,0,216,28Z"
     id="path2"
     style="stroke:#ffffff;stroke-opacity:1;stroke-width:16;stroke-dasharray:none;stroke-miterlimit:20;fill:#ffffff;fill-opacity:1" />
</svg>
