<?xml version="1.0" encoding="UTF-8" standalone="no"?>
<!-- Uploaded to: SVG Repo, www.svgrepo.com, Generator: SVG Repo Mixer Tools -->

<svg
   width="800px"
   height="800px"
   viewBox="-4 0 20 20"
   version="1.1"
   id="svg12"
   sodipodi:docname="right-arrow.svg"
   inkscape:version="1.2.2 (b0a8486541, 2022-12-01)"
   xmlns:inkscape="http://www.inkscape.org/namespaces/inkscape"
   xmlns:sodipodi="http://sodipodi.sourceforge.net/DTD/sodipodi-0.dtd"
   xmlns="http://www.w3.org/2000/svg"
   xmlns:svg="http://www.w3.org/2000/svg">
  <sodipodi:namedview
     id="namedview14"
     pagecolor="#ffffff"
     bordercolor="#000000"
     borderopacity="0.25"
     inkscape:showpageshadow="2"
     inkscape:pageopacity="0.0"
     inkscape:pagecheckerboard="0"
     inkscape:deskcolor="#d1d1d1"
     showgrid="false"
     inkscape:zoom="1.00375"
     inkscape:cx="355.16812"
     inkscape:cy="377.58406"
     inkscape:window-width="1920"
     inkscape:window-height="983"
     inkscape:window-x="0"
     inkscape:window-y="34"
     inkscape:window-maximized="1"
     inkscape:current-layer="svg12" />
  <title
     id="title2">arrow_up [#284]</title>
  <desc
     id="desc4">Created with Sketch.</desc>
  <defs
     id="defs6" />
  <g
     id="Page-1"
     stroke="none"
     stroke-width="1"
     fill="none"
     fill-rule="evenodd"
     transform="rotate(90,5.99995,9.999825)">
    <g
       id="Dribbble-Light-Preview"
       transform="translate(-384,-6879)"
       fill="#000000">
      <g
         id="icons"
         transform="translate(56,160)">
        <path
           d="m 336.996,6736.9997 h -6 c -0.552,0 -0.996,-0.448 -0.996,-1 v -10.887 c 0,-0.135 0.052,-0.264 0.149,-0.358 l 3.15,-3.0739 c 0.388,-0.3791 1.007,-0.3791 1.396,0 l 3.152,3.0739 c 0.097,0.094 0.153,0.223 0.153,0.358 v 10.887 c 0,0.552 -0.452,1 -1.004,1 m -4.397,-17.432 -4.299,4.197 c -0.193,0.1881 -0.3,0.446 -0.3,0.716 v 12.519 c 0,1.1051 0.891,2 1.996,2 h 8 c 1.105,0 2.004,-0.8949 2.004,-2 v -12.519 c 0,-0.27 -0.111,-0.5279 -0.304,-0.716 l -4.302,-4.197 c -0.777,-0.757 -2.018,-0.757 -2.795,0"
           id="arrow_up-[#284]" />
      </g>
    </g>
  </g>
</svg>
